<svg id="Capa_1" data-name="Capa 1" xmlns="http://www.w3.org/2000/svg" viewBox="0 0 446.46 800"><defs><style>.cls-1{fill:#fff;}</style></defs><path class="cls-1" d="M439.82,645.12,418.64,125.71a16.93,16.93,0,0,1,3.66-5.95,15.49,15.49,0,0,1,6.36-3.58H450.9l4.24-14.26L452,95.44h-.9V84.65H422c1.71-3.18,3.3-7.58,2.12-11.69-2.29-7.54-3-8.27-3-8.27s2-10.35-1.26-16.7-5.3-10.6-5.3-10.6,2.77-4.84-1.79-12c-4.6-7-8.92-11.53-8.39-15.28.49-3.34-1.92-9-2.4-10.1h-4.12c-.49,1.14-2.89,6.76-2.36,10.1.49,3.75-3.83,8.27-8.35,15.28-4.56,7.17-1.84,12-1.84,12S383.36,41.63,380,48s-1.22,16.7-1.22,16.7-.82.81-3,8.27c-1.26,4.11.29,8.51,2,11.69h-29V95.48h-1.05l-3,6.44,4.24,14.26h22.32a15.75,15.75,0,0,1,6.36,3.58,18.09,18.09,0,0,1,3.66,5.95L360.1,645.12H176.75V672.5h29c12.92,5.17,34.39,14.54,51,26.31,18.16,13,43.7,42.25,56.54,57.6H255.82V800H544.06V756.41H486.5c12.79-15.35,38.33-44.72,56.66-57.6,16.54-11.77,38.05-21.18,50.92-26.31h29.13V645.12ZM386.54,67.17c2.73-4.4.57-6,2.24-13.07s3.3-12.55,5.46-16.38,4.88-10.35,4.88-10.35-3.74,31.66-3.74,36,2.07,18.54,2.07,18.54l-7.61-.45S383.89,71.65,386.54,67.17ZM611,661H185.1v-8.59H611Z" transform="translate(-176.75)"/></svg>