<svg id="Capa_1" data-name="Capa 1" xmlns="http://www.w3.org/2000/svg" viewBox="0 0 800 800"><defs><style>.cls-1{fill:#121c35;}.cls-2{fill:#4b90ff;}</style></defs><rect class="cls-1" width="800" height="800"/><path class="cls-2" d="M435.36,617.56l-18.8-461a15,15,0,0,1,3.25-5.28,13.69,13.69,0,0,1,5.64-3.18h19.74L449,135.44l-2.74-5.75h-.8v-9.58H419.56c1.52-2.82,2.93-6.72,1.88-10.37-2-6.69-2.68-7.34-2.68-7.34s1.78-9.19-1.12-14.83-4.7-9.4-4.7-9.4,2.46-4.3-1.59-10.66S403.43,57.28,403.9,54c.44-3-1.69-8-2.13-9h-3.65c-.43,1-2.57,6-2.1,9,.44,3.33-3.4,7.34-7.41,13.56S387,78.17,387,78.17s-1.73,3.76-4.7,9.4-1.08,14.83-1.08,14.83-.72.72-2.68,7.34c-1.12,3.65.26,7.55,1.74,10.37H354.52v9.62h-.94l-2.68,5.71,3.76,12.66h19.82a13.94,13.94,0,0,1,5.64,3.18,16,16,0,0,1,3.25,5.28l-18.76,461H201.88v24.29h25.77c11.46,4.59,30.52,12.91,45.27,23.36,16.12,11.5,38.79,37.49,50.18,51.12H272.05V755H527.88V716.33H476.79c11.35-13.63,34-39.7,50.29-51.12,14.68-10.45,33.77-18.8,45.19-23.36h25.85V617.56Zm-47.29-513c2.42-3.9.51-5.31,2-11.6S393,81.86,394.9,78.46s4.34-9.18,4.34-9.18-3.33,28.09-3.33,32,1.85,16.45,1.85,16.45l-6.76-.4S385.72,108.58,388.07,104.6Zm199.24,527h-378V624h378Z"/></svg>